<svg xmlns="http://www.w3.org/2000/svg" viewBox="0 0 512 512" role="img" aria-label="Identificção Pet">
  <rect width="512" height="512" fill="#2ac9a7"/>
  <g fill="#a7a7a7" transform="translate(256 256) scale(.78) translate(-256 -256)">
    <ellipse cx="197" cy="142" rx="48" ry="72" transform="rotate(-12 197 142)"/>
    <ellipse cx="315" cy="142" rx="48" ry="72" transform="rotate(12 315 142)"/>
    <ellipse cx="119" cy="251" rx="46" ry="68" transform="rotate(-28 119 251)"/>
    <ellipse cx="393" cy="246" rx="46" ry="68" transform="rotate(28 393 246)"/>
    <path d="M141 393c5-33 19-68 40-98 23-33 49-33 75-33s52 0 75 33c21 30 35 65 40 98 5 31-15 49-46 43-22-4-43-18-69-19-26 1-47 15-69 19-31 6-51-12-46-43Z"/>
  </g>
</svg>
